<?xml version="1.0" encoding="UTF-8" standalone="no"?>
<!-- Created with Inkscape (http://www.inkscape.org/) -->

<svg
   version="1.1"
   id="svg2"
   xml:space="preserve"
   width="2666.6667"
   height="2666.6667"
   viewBox="0 0 2666.6667 2666.6667"
   sodipodi:docname="edited-rocket.svg"
   inkscape:version="1.2.1 (9c6d41e410, 2022-07-14)"
   xmlns:inkscape="http://www.inkscape.org/namespaces/inkscape"
   xmlns:sodipodi="http://sodipodi.sourceforge.net/DTD/sodipodi-0.dtd"
   xmlns="http://www.w3.org/2000/svg"
   xmlns:svg="http://www.w3.org/2000/svg"><defs
     id="defs6" /><sodipodi:namedview
     id="namedview4"
     pagecolor="#ffffff"
     bordercolor="#666666"
     borderopacity="1.0"
     inkscape:pageshadow="2"
     inkscape:pageopacity="0.0"
     inkscape:pagecheckerboard="0"
     inkscape:showpageshadow="2"
     inkscape:deskcolor="#d1d1d1"
     showgrid="false"
     inkscape:zoom="0.31387499"
     inkscape:cx="979.6894"
     inkscape:cy="-54.16169"
     inkscape:window-width="1920"
     inkscape:window-height="1017"
     inkscape:window-x="-8"
     inkscape:window-y="-8"
     inkscape:window-maximized="1"
     inkscape:current-layer="g8" /><g
     id="g8"
     inkscape:groupmode="layer"
     inkscape:label="ink_ext_XXXXXX"
     transform="matrix(1.3333333,0,0,-1.3333333,0,2666.6667)"><path
       d="M 2000,0 H 0 V 2000 H 2000 V 0"
       style="display:none;fill:#ffffff;fill-opacity:1;fill-rule:nonzero;stroke:none;stroke-width:0.1"
       id="path12" /><path
       d="M 1000,804.5 V 770.4 H 848.894 c -5.746,10.11 -10.733,21.74 -15.042,34.1 H 1000"
       style="fill:#673946;fill-opacity:1;fill-rule:nonzero;stroke:none;stroke-width:0.1"
       id="path14" /><path
       d="M 1000,804.5 V 770.4 H 848.894 c -5.096,8.94 -9.568,19.08 -13.525,29.87 -0.515,1.41 -1.03,2.82 -1.517,4.23 H 1000"
       style="fill:#673946;fill-opacity:1;fill-rule:nonzero;stroke:none;stroke-width:0.1"
       id="path16" /><path
       d="m 889.09,770.4 h -31.278 c -5.096,8.94 -9.568,19.08 -13.525,29.87 -0.516,1.41 -1.031,2.82 -1.518,4.23 h 31.278 c 0.488,-1.41 1.003,-2.82 1.518,-4.23 3.957,-10.79 8.429,-20.93 13.525,-29.87"
       style="fill:#895d70;fill-opacity:1;fill-rule:nonzero;stroke:none;stroke-width:0.1"
       id="path18" /><path
       d="m 1241.69,1162.73 c 0,-263.8 -63.26,-358.23 -63.26,-358.23 H 821.573 c 0,0 -63.261,94.43 -63.261,358.23 0,318.02 241.688,587.27 241.688,587.27 0,0 241.69,-269.25 241.69,-587.27"
       style="fill:#eaeaea;fill-opacity:1;fill-rule:nonzero;stroke:none;stroke-width:0.1"
       id="path20" /><path
       d="m 1045.51,804.5 h -39.17 c -9.592,47.84 -19.242,112.26 -23.66,190.95 -6.477,115.62 5.123,170.05 23.15,171.05 18.02,1 35.61,-51.77 42.09,-167.39 4.47,-79.88 1.9,-145.77 -2.41,-194.61"
       style="fill:#cecece;fill-opacity:1;fill-rule:nonzero;stroke:none;stroke-width:0.1"
       id="path22" /><path
       d="m 1241.69,1162.73 c 0,-263.8 -63.26,-358.23 -63.26,-358.23 h -83.21 c 0,0 59.73,106.16 59.73,402.74 0,133.24 -31.71,258.9 -71.52,364.09 h 39.81 c 59.63,-106.68 118.45,-251.69 118.45,-408.6"
       style="fill:#cecece;fill-opacity:1;fill-rule:nonzero;stroke:none;stroke-width:0.1"
       id="path24" /><path
       d="m 1000,804.5 v -4.23 H 835.369 c -0.515,1.41 -1.03,2.82 -1.517,4.23 H 1000"
       style="fill:#562c36;fill-opacity:1;fill-rule:nonzero;stroke:none;stroke-width:0.1"
       id="path26" /><path
       d="M 1123.27,1571.33 H 876.73 C 937.958,1680.88 1000,1750 1000,1750 c 0,0 62.04,-69.12 123.27,-178.67"
       style="fill:#e83d23;fill-opacity:1;fill-rule:nonzero;stroke:none;stroke-width:0.1"
       id="path28" /><path
       d="m 1123.24,1571.33 h -39.81 c -26.16,69.17 -55.81,129.5 -82.24,177.31 1.79,-2.03 5.5,-6.34 10.76,-12.73 0.63,-0.79 1.3,-1.58 1.98,-2.42 2.71,-3.33 5.78,-7.12 9.11,-11.38 1.11,-1.41 2.28,-2.87 3.47,-4.39 0,-0.03 0,-0.03 0,-0.03 1.79,-2.27 3.63,-4.69 5.53,-7.18 0.13,-0.14 0.21,-0.27 0.32,-0.41 0.65,-0.86 1.36,-1.79 2.06,-2.71 2.47,-3.28 5.07,-6.72 7.73,-10.32 1.41,-1.9 2.84,-3.85 4.31,-5.86 1.46,-2 2.95,-4.07 4.44,-6.15 1.3,-1.82 2.63,-3.66 3.99,-5.56 0.97,-1.38 1.97,-2.79 2.95,-4.2 0.79,-1.11 1.57,-2.25 2.39,-3.39 1.57,-2.27 3.19,-4.6 4.82,-6.96 0.81,-1.17 1.63,-2.36 2.44,-3.58 0.03,-0.03 0.05,-0.03 0.05,-0.05 1.63,-2.39 3.26,-4.83 4.94,-7.3 0.84,-1.24 1.68,-2.52 2.52,-3.76 1.05,-1.57 2.11,-3.17 3.17,-4.8 1.49,-2.28 3.01,-4.58 4.53,-6.91 0.86,-1.33 1.73,-2.66 2.57,-4.01 0.89,-1.36 1.76,-2.71 2.63,-4.1 2.63,-4.09 5.28,-8.29 7.94,-12.6 1.76,-2.87 3.55,-5.77 5.34,-8.7 4.45,-7.35 8.94,-14.91 13.47,-22.69 0.03,-0.02 0.03,-0.05 0.03,-0.08 1.81,-3.11 3.63,-6.29 5.45,-9.48 0.92,-1.6 1.81,-3.2 2.71,-4.83 0.13,-0.24 0.27,-0.49 0.4,-0.73"
       style="fill:#b51212;fill-opacity:1;fill-rule:nonzero;stroke:none;stroke-width:0.1"
       id="path30" /><path
       d="m 1026.51,1717.69 c 1.79,-2.27 3.63,-4.69 5.53,-7.18 -1.93,2.52 -3.77,4.91 -5.53,7.18"
       style="fill:#e83d23;fill-opacity:1;fill-rule:nonzero;stroke:none;stroke-width:0.1"
       id="path32" /><path
       d="m 1067.49,1661.37 c -3.28,4.82 -6.51,9.46 -9.65,13.93 3.17,-4.47 6.4,-9.11 9.65,-13.93"
       style="fill:#e83d23;fill-opacity:1;fill-rule:nonzero;stroke:none;stroke-width:0.1"
       id="path34" /><path
       d="m 1101.18,1609.14 c 4.47,-7.32 8.97,-14.88 13.47,-22.69 -4.53,7.78 -9.02,15.34 -13.47,22.69"
       style="fill:#e83d23;fill-opacity:1;fill-rule:nonzero;stroke:none;stroke-width:0.1"
       id="path36" /><path
       d="m 1123.27,1571.33 h -0.03 c -0.13,0.24 -0.27,0.49 -0.4,0.73 0.16,-0.24 0.29,-0.49 0.43,-0.73"
       style="fill:#e83d23;fill-opacity:1;fill-rule:nonzero;stroke:none;stroke-width:0.1"
       id="path38" /><path
       d="M 811.192,824.5 C 747.66,783.17 713.807,745.87 695.783,717.93 c -20.328,35.42 -32.553,77.24 -32.553,126.55 0,160.75 55.564,267.05 95.109,322.37 -0.027,-1.38 -0.027,-2.73 -0.027,-4.12 0,-195.99 34.91,-298.47 52.88,-338.23"
       style="fill:#e83d23;fill-opacity:1;fill-rule:nonzero;stroke:none;stroke-width:0.1"
       id="path40" /><path
       d="m 684.724,776.99 c -5.421,20.76 -8.402,43.2 -8.402,67.49 0,143.7 44.397,243.88 82.071,303.05 0.136,-16.56 0.543,-32.45 1.193,-47.62 -34.396,-60.88 -66.568,-145.09 -76.488,-255.38 -2.168,-23.88 -1.491,-46.37 1.626,-67.54"
       style="fill:#f9a293;fill-opacity:1;fill-rule:nonzero;stroke:none;stroke-width:0.1"
       id="path42" /><path
       d="M 1154.95,612.52 C 1154.95,437.99 1000,250 1000,250 c 0,0 -154.955,187.99 -154.955,362.52 0,65.94 13.038,118.25 29.219,157.88 h 251.476 c 16.18,-39.63 29.21,-91.94 29.21,-157.88"
       style="display:inline;fill:#ff6200;fill-opacity:1;fill-rule:nonzero;stroke:none;stroke-width:0.1"
       id="path44" /><path
       d="M 1116.09,676.16 C 1116.09,545.41 1000,404.55 1000,404.55 c 0,0 -116.087,140.86 -116.087,271.61 0,37.05 5.502,68.38 13.362,94.24 h 205.445 c 7.86,-25.86 13.37,-57.19 13.37,-94.24"
       style="fill:#f8b62e;fill-opacity:1;fill-rule:nonzero;stroke:none;stroke-width:0.1"
       id="path46" /><path
       d="m 1081.77,732.43 c 0,-92.1 -81.77,-191.3 -81.77,-191.3 0,0 -81.773,99.2 -81.773,191.3 0,13.77 1.084,26.42 2.927,37.97 h 157.696 c 1.84,-11.55 2.92,-24.2 2.92,-37.97"
       style="fill:#fee789;fill-opacity:1;fill-rule:nonzero;stroke:none;stroke-width:0.1"
       id="path48" /><path
       d="m 811.192,1158.13 c 0,-190.28 27.213,-300.37 45.915,-353.63 h -14.203 c 0,0 -63.234,94.43 -63.234,358.23 0,156.91 58.816,301.94 118.445,408.6 H 912.02 C 858.977,1458.41 811.192,1313.57 811.192,1158.13"
       style="fill:#ffffff;fill-opacity:1;fill-rule:nonzero;stroke:none;stroke-width:0.1"
       id="path50" /><path
       d="m 982.057,1700.94 c -21.927,-35.7 -46.511,-79.5 -70.037,-129.61 h -13.905 c 30.33,54.32 60.876,98.69 83.942,129.61"
       style="fill:#f9a293;fill-opacity:1;fill-rule:nonzero;stroke:none;stroke-width:0.1"
       id="path52" /><path
       d="m 1000,804.5 v -34.1 h 151.11 c 5.74,10.11 10.73,21.74 15.04,34.1 H 1000"
       style="fill:#673946;fill-opacity:1;fill-rule:nonzero;stroke:none;stroke-width:0.1"
       id="path54" /><path
       d="m 1000,804.5 v -34.1 h 151.11 c 5.09,8.94 9.56,19.08 13.52,29.87 0.52,1.41 1.03,2.82 1.52,4.23 H 1000"
       style="fill:#673946;fill-opacity:1;fill-rule:nonzero;stroke:none;stroke-width:0.1"
       id="path56" /><path
       d="m 1142.99,804.5 h -77.6 c -0.49,-1.41 -1,-2.82 -1.52,-4.23 -3.96,-10.79 -8.43,-20.93 -13.52,-29.87 h 23.16 8.11 15.05 8.12 15.04 8.12 23.16 c 5.09,8.94 9.56,19.08 13.52,29.87 0.52,1.41 1.03,2.82 1.52,4.23 h -23.16"
       style="fill:#562c36;fill-opacity:1;fill-rule:nonzero;stroke:none;stroke-width:0.1"
       id="path58" /><path
       d="m 1000,804.5 v -4.23 h 164.63 c 0.52,1.41 1.03,2.82 1.52,4.23 H 1000"
       style="fill:#562c36;fill-opacity:1;fill-rule:nonzero;stroke:none;stroke-width:0.1"
       id="path60" /><path
       d="m 1188.81,824.5 c 63.53,-41.33 97.38,-78.63 115.41,-106.57 20.33,35.42 32.55,77.24 32.55,126.55 0,160.75 -55.56,267.05 -95.11,322.37 0.03,-1.38 0.03,-2.73 0.03,-4.12 0,-195.99 -34.91,-298.47 -52.88,-338.23"
       style="fill:#e83d23;fill-opacity:1;fill-rule:nonzero;stroke:none;stroke-width:0.1"
       id="path62" /><path
       d="m 1243.86,783.93 c -15.29,12.92 -33.45,26.5 -55.05,40.57 17.97,39.76 52.88,142.24 52.88,338.23 0,1.39 0,2.74 -0.03,4.12 0.68,-0.92 1.33,-1.87 2.01,-2.84 1.49,-7.51 2.82,-15.07 4.04,-22.69 35.56,-223.8 5.39,-331.48 -3.85,-357.39"
       style="fill:#b51212;fill-opacity:1;fill-rule:nonzero;stroke:none;stroke-width:0.1"
       id="path64" /><path
       d="m 1141.89,1314.93 c 0,-75.6 -61.29,-136.88 -136.88,-136.88 -75.595,0 -136.876,61.28 -136.876,136.88 0,75.59 61.281,136.87 136.876,136.87 75.59,0 136.88,-61.28 136.88,-136.87"
       style="fill:#cecece;fill-opacity:1;fill-rule:nonzero;stroke:none;stroke-width:0.1"
       id="path66" /><path
       d="m 1136.88,1319.94 c 0,-75.6 -61.29,-136.88 -136.88,-136.88 -75.595,0 -136.876,61.28 -136.876,136.88 0,75.59 61.281,136.87 136.876,136.87 75.59,0 136.88,-61.28 136.88,-136.87"
       style="fill:#e83d23;fill-opacity:1;fill-rule:nonzero;stroke:none;stroke-width:0.1"
       id="path68" /><path
       d="m 1136.88,1319.94 c 0,-75.6 -61.29,-136.88 -136.88,-136.88 -39.193,0 -74.537,16.48 -99.5,42.88 24.503,-23.17 57.597,-37.38 93.998,-37.38 75.592,0 136.872,61.29 136.872,136.88 0,36.4 -14.2,69.5 -37.37,94 26.4,-24.97 42.88,-60.31 42.88,-99.5"
       style="fill:#b51212;fill-opacity:1;fill-rule:nonzero;stroke:none;stroke-width:0.1"
       id="path70" /><path
       d="m 1090.8,1407.19 c -22.94,21.28 -53.64,34.26 -87.37,34.26 -70.999,0 -128.557,-57.56 -128.557,-128.56 0,-33.75 12.983,-64.43 34.265,-87.36 -25.33,23.44 -41.19,57.02 -41.19,94.29 0,71 57.559,128.56 128.558,128.56 37.274,0 70.844,-15.86 94.294,-41.19"
       style="fill:#f9a293;fill-opacity:1;fill-rule:nonzero;stroke:none;stroke-width:0.1"
       id="path72" /><path
       d="m 1105.93,1321.74 c 0,-59.68 -48.39,-108.07 -108.076,-108.07 -59.689,0 -108.078,48.39 -108.078,108.07 0,59.7 48.389,108.08 108.078,108.08 59.686,0 108.076,-48.38 108.076,-108.08"
       style="fill:#b51212;fill-opacity:1;fill-rule:nonzero;stroke:none;stroke-width:0.1"
       id="path74" /><path
       d="m 1105.71,1319.94 c 0,-58.38 -47.33,-105.71 -105.71,-105.71 -58.38,0 -105.707,47.33 -105.707,105.71 0,58.38 47.327,105.7 105.707,105.7 58.38,0 105.71,-47.32 105.71,-105.7"
       style="fill:#60d0f8;fill-opacity:1;fill-rule:nonzero;stroke:none;stroke-width:0.1"
       id="path76" /><path
       d="m 1105.71,1319.94 c 0,-58.38 -47.33,-105.71 -105.71,-105.71 -33.203,0 -62.8,15.29 -82.18,39.22 18.16,-14.72 41.307,-23.52 66.487,-23.52 58.383,0 105.703,47.32 105.703,105.7 0,25.18 -8.81,48.33 -23.52,66.49 23.93,-19.38 39.22,-48.98 39.22,-82.18"
       style="fill:#53b8e0;fill-opacity:1;fill-rule:nonzero;stroke:none;stroke-width:0.1"
       id="path78" /><path
       d="m 980.688,1331.57 c -25.934,-25.93 -49.316,-44.6 -64.96,-28.95 -15.645,15.64 -11.583,53.62 14.351,79.56 25.935,25.93 63.921,30 79.561,14.35 15.65,-15.64 -3.02,-39.03 -28.952,-64.96"
       style="fill:#87e4f9;fill-opacity:1;fill-rule:nonzero;stroke:none;stroke-width:0.1"
       id="path80" /><path
       d="m 1005.01,1166.85 c -18.046,0 -32.675,-53.68 -32.675,-169.48 0,-182.93 32.675,-290.74 32.675,-290.74 0,0 32.67,107.81 32.67,290.74 0,115.8 -14.63,169.48 -32.67,169.48"
       style="fill:#e83d23;fill-opacity:1;fill-rule:nonzero;stroke:none;stroke-width:0.1"
       id="path82" /><path
       d="m 1037.67,997.37 c 0,-182.93 -32.66,-290.75 -32.66,-290.75 0,0 -9.211,30.36 -17.857,86.22 0.068,-0.36 0.137,-0.73 0.205,-1.09 2.629,-13.98 45.302,-4.3 45.302,232.75 0,45.81 -2.33,81.78 -6.26,108.5 6.91,-27.56 11.27,-72.31 11.27,-135.63"
       style="fill:#b51212;fill-opacity:1;fill-rule:nonzero;stroke:none;stroke-width:0.1"
       id="path84" /><path
       d="m 995.935,1142.18 c 0,0 -23.6,-59.85 -12.198,-197.18 0,0 0.678,133.16 12.198,197.18"
       style="fill:#f9a293;fill-opacity:1;fill-rule:nonzero;stroke:none;stroke-width:0.1"
       id="path86" /></g></svg>
